# xmcd
#
# Track frame offsets: 
#        150
#        22135
#        38042
#
# Disc length: 723 seconds
#
# Revision: 0
# Processed by: cddbd v1.4PL0 Copyright (c) Steve Scherf et al.
# Submitted via: ExactAudioCopy v0.90b4
#
DISCID=1e02d103
DTITLE=Willie Nelson - Don't Give Up (Single)
DYEAR=1993
DGENRE=Country
TTITLE0=Don't Give Up (Special Version)
TTITLE1=Still Is Still Moving To Me
TTITLE2=Valentine
EXTD=
EXTT0=
EXTT1=
EXTT2=
PLAYORDER=
